<svg width="22" height="20" viewBox="0 0 22 20" fill="none" xmlns="http://www.w3.org/2000/svg">
<path fill-rule="evenodd" clip-rule="evenodd" d="M8.5093 0C7.86438 0 7.42822 0.562054 7.42822 1.11486V18.8767C7.42822 19.4295 7.86438 20 8.5093 20H11.7525C12.3975 20 12.8336 19.4295 12.8336 18.8767V1.11486C12.8336 0.562054 12.3975 0 11.7525 0H8.5093ZM9.0498 1.62158H11.212V3.78374H9.0498V1.62158ZM1.45217 2.16211C0.867283 2.16211 0.371094 2.6583 0.371094 3.24319V18.9189C0.371094 19.5038 0.867283 19.9999 1.45217 19.9999H4.69542C5.28031 19.9999 5.7765 19.5038 5.7765 18.9189V3.24319C5.7765 2.6583 5.28031 2.16211 4.69542 2.16211H1.45217ZM1.99268 3.78381H4.15484V5.40544H1.99268V3.78381ZM9.0498 5.4054H11.212V14.5946H9.0498V5.4054ZM1.99268 7.02698H4.15484V15.1351H1.99268V7.02698ZM9.0498 16.2162H11.212V18.3783H9.0498V16.2162ZM1.99268 16.7567H4.15484V18.3783H1.99268V16.7567ZM17.5234 16.698L19.656 16.3414L19.9234 17.9409L17.7908 18.2974L17.5234 16.698ZM18.3188 8.34436L19.3885 14.742L17.2559 15.0986L16.1863 8.70091L18.3188 8.34436ZM15.6516 5.50206L17.7842 5.14551L18.0516 6.74493L15.919 7.10148L15.6516 5.50206ZM14.8509 3.99183C14.3036 4.08333 13.8587 4.6129 13.9587 5.21138L16.2833 19.1147C16.3833 19.7132 16.9777 20.0775 17.525 19.986L20.7239 19.4512C21.2712 19.3597 21.7147 18.8218 21.6147 18.2233L19.2901 4.32001C19.1901 3.72153 18.597 3.3655 18.0497 3.45701L14.8509 3.99183Z" fill="black"/>
</svg>
