<svg width="27" height="28" viewBox="0 0 27 28" fill="none" xmlns="http://www.w3.org/2000/svg">
<path fill-rule="evenodd" clip-rule="evenodd" d="M0 14.2502C0 21.7061 6.04416 27.7502 13.5 27.7502C20.9558 27.7502 27 21.7061 27 14.2502C27 6.7944 20.9558 0.750244 13.5 0.750244C6.04416 0.750244 0 6.7944 0 14.2502Z" fill="white"/>
<path d="M12 8.25024C12 9.07867 12.6716 9.75024 13.5 9.75024C14.3284 9.75024 15 9.07867 15 8.25024C15 7.42182 14.3284 6.75024 13.5 6.75024C12.6716 6.75024 12 7.42182 12 8.25024Z" fill="#999999"/>
<path d="M12 14.2502C12 15.0787 12.6716 15.7502 13.5 15.7502C14.3284 15.7502 15 15.0787 15 14.2502C15 13.4218 14.3284 12.7502 13.5 12.7502C12.6716 12.7502 12 13.4218 12 14.2502Z" fill="#999999"/>
<path d="M13.5 21.7502C12.6716 21.7502 12 21.0787 12 20.2502C12 19.4218 12.6716 18.7502 13.5 18.7502C14.3284 18.7502 15 19.4218 15 20.2502C15 21.0787 14.3284 21.7502 13.5 21.7502Z" fill="#999999"/>
</svg>
