<svg width="17" height="15" viewBox="0 0 17 15" fill="none" xmlns="http://www.w3.org/2000/svg">
<path fill-rule="evenodd" clip-rule="evenodd" d="M8.49679 15L15.5241 8.40218C16.4685 7.48169 17 6.22628 17 4.9163C17 3.60632 16.4685 2.3509 15.5241 1.43042C13.5799 -0.452796 10.4744 -0.479871 8.49679 1.36915C6.51575 -0.47638 3.41021 -0.443703 1.46948 1.44309C0.526817 2.36527 -0.00240497 3.62164 8.21682e-06 4.93162C0.00242141 6.2416 0.536268 7.49607 1.48232 8.41486L8.49679 15ZM2.67459 2.63674C3.37919 1.94432 4.36068 1.59929 5.35012 1.69621C6.33956 1.79313 7.23319 2.32183 7.78614 3.13744L8.49679 4.19377L9.20745 3.13744C9.33277 2.95679 9.4762 2.78905 9.63555 2.63674C10.936 1.37733 13.0186 1.37733 14.319 2.63674C14.9363 3.23762 15.2848 4.05692 15.2872 4.9126C15.2896 5.76829 14.9457 6.58948 14.3318 7.19374L8.49679 12.6676L2.67459 7.20008C2.05706 6.59727 1.70956 5.77565 1.70956 4.91841C1.70956 4.06117 2.05706 3.23956 2.67459 2.63674Z" fill="#999999"/>
</svg>
