<svg width="18" height="20" viewBox="0 0 18 20" fill="none" xmlns="http://www.w3.org/2000/svg">
<path fill-rule="evenodd" clip-rule="evenodd" d="M17.2502 14.5002L16.242 13.4232V9.80245C16.2459 6.9762 14.5581 4.42199 11.9567 3.31727V2.90478C12.0502 1.90038 11.5672 0.92956 10.7097 0.398383C9.85208 -0.132794 8.76774 -0.132794 7.91016 0.398383C7.05259 0.92956 6.56957 1.90038 6.66313 2.90478V3.31727C4.05275 4.41493 2.35493 6.97068 2.35495 9.80245V13.4002L1.34665 14.4773C0.856212 15.0134 0.72865 15.7885 1.02144 16.4535C1.31423 17.1185 1.97211 17.5478 2.69869 17.548H6.15898C6.51517 18.9817 7.79831 19.9912 9.27553 20H9.32137C10.7919 19.9939 12.0729 18.9955 12.4379 17.5709H15.9211C16.6477 17.5707 17.3056 17.1414 17.5984 16.4764C17.8912 15.8114 17.7636 15.0363 17.2732 14.5002H17.2502ZM8.01515 2.90483C7.94854 2.40969 8.17535 1.9209 8.59645 1.65206C9.01756 1.38323 9.55641 1.38323 9.97751 1.65206C10.3986 1.9209 10.6254 2.40969 10.5588 2.90483C9.71846 2.74498 8.85551 2.74498 8.01515 2.90483ZM9.32147 18.648H9.27564C8.5617 18.6476 7.91128 18.2377 7.60278 17.5939H10.9943C10.6793 18.2288 10.0302 18.6289 9.32147 18.6251V18.648ZM16.3336 15.921C16.2668 16.0896 16.1025 16.1992 15.9211 16.196H2.67575C2.48821 16.2028 2.31544 16.0946 2.23969 15.9229C2.16394 15.7512 2.20052 15.5507 2.33201 15.4168L3.52363 14.1335C3.63937 14.0087 3.7047 13.8454 3.70696 13.6752V9.80244C3.70696 7.81299 4.76832 5.97466 6.49123 4.97993C8.21415 3.98521 10.3369 3.98521 12.0598 4.97993C13.7827 5.97466 14.8441 7.81299 14.8441 9.80244V13.6752C14.8463 13.8454 14.9116 14.0087 15.0274 14.1335L16.219 15.4168C16.3636 15.5415 16.4101 15.746 16.3336 15.921Z" fill="black"/>
</svg>
