<svg width="15" height="11" viewBox="0 0 15 11" fill="none" xmlns="http://www.w3.org/2000/svg">
<path fill-rule="evenodd" clip-rule="evenodd" d="M8.41008 11C8.74665 11 9.0195 10.7324 9.0195 10.4022C9.0195 9.51523 8.75342 8.68925 8.29529 7.99685C8.87764 7.48512 9.64689 7.17392 10.4902 7.17392C12.3078 7.17392 13.7811 8.61926 13.7811 10.4022C13.7811 10.7324 14.054 11 14.3906 11C14.7272 11 15 10.7324 15 10.4022C15 7.95892 12.9809 5.97827 10.4902 5.97827C9.34305 5.97827 8.29589 6.39847 7.5 7.09054C6.70411 6.39847 5.65695 5.97827 4.50975 5.97827C2.01908 5.97827 0 7.95892 0 10.4022C0 10.7324 0.272849 11 0.609426 11C0.946002 11 1.21885 10.7324 1.21885 10.4022C1.21885 8.61926 2.69224 7.17392 4.50975 7.17392C5.35311 7.17392 6.12237 7.48512 6.70471 7.99684C6.24658 8.68924 5.9805 9.51523 5.9805 10.4022C5.9805 10.7324 6.25335 11 6.58992 11C6.9265 11 7.19935 10.7324 7.19935 10.4022C7.19935 9.92026 7.307 9.46299 7.5 9.05227C7.693 9.46299 7.80065 9.92026 7.80065 10.4022C7.80065 10.7324 8.0735 11 8.41008 11ZM4.50975 5.5C2.9615 5.5 1.70639 4.26878 1.70639 2.75C1.70639 1.23122 2.9615 0 4.50975 0C6.058 0 7.31311 1.23122 7.31311 2.75C7.31311 4.26878 6.058 5.5 4.50975 5.5ZM4.50975 4.30435C5.38485 4.30435 6.09426 3.60844 6.09426 2.75C6.09426 1.89156 5.38485 1.19565 4.50975 1.19565C3.63465 1.19565 2.92524 1.89156 2.92524 2.75C2.92524 3.60844 3.63465 4.30435 4.50975 4.30435ZM10.4902 4.30435C11.3653 4.30435 12.0748 3.60844 12.0748 2.75C12.0748 1.89156 11.3653 1.19565 10.4902 1.19565C9.61515 1.19565 8.90574 1.89156 8.90574 2.75C8.90574 3.60844 9.61515 4.30435 10.4902 4.30435ZM10.4902 5.5C8.942 5.5 7.68689 4.26878 7.68689 2.75C7.68689 1.23122 8.942 0 10.4902 0C12.0385 0 13.2936 1.23122 13.2936 2.75C13.2936 4.26878 12.0385 5.5 10.4902 5.5Z" fill="black"/>
</svg>
