<svg width="20" height="15" viewBox="0 0 20 15" fill="none" xmlns="http://www.w3.org/2000/svg">
<path fill-rule="evenodd" clip-rule="evenodd" d="M11.2134 15C11.6622 15 12.026 14.635 12.026 14.1848C12.026 12.9753 11.6712 11.849 11.0604 10.9048C11.8368 10.207 12.8625 9.78261 13.987 9.78261C16.4104 9.78261 18.3749 11.7535 18.3749 14.1848C18.3749 14.635 18.7387 15 19.1874 15C19.6362 15 20 14.635 20 14.1848C20 10.8531 17.3079 8.15217 13.987 8.15217C12.4574 8.15217 11.0612 8.72518 10 9.6689C8.93882 8.72518 7.54261 8.15217 6.013 8.15217C2.69211 8.15217 0 10.8531 0 14.1848C0 14.635 0.363799 15 0.812568 15C1.26134 15 1.62514 14.635 1.62514 14.1848C1.62514 11.7535 3.58965 9.78261 6.013 9.78261C7.13748 9.78261 8.16316 10.207 8.93962 10.9048C8.32878 11.849 7.974 12.9753 7.974 14.1848C7.974 14.635 8.3378 15 8.78657 15C9.23533 15 9.59913 14.635 9.59913 14.1848C9.59913 13.5276 9.74267 12.9041 10 12.344C10.2573 12.9041 10.4009 13.5276 10.4009 14.1848C10.4009 14.635 10.7647 15 11.2134 15ZM6.013 7.5C3.94866 7.5 2.27519 5.82107 2.27519 3.75C2.27519 1.67893 3.94866 0 6.013 0C8.07734 0 9.75081 1.67893 9.75081 3.75C9.75081 5.82107 8.07734 7.5 6.013 7.5ZM6.013 5.86957C7.1798 5.86957 8.12568 4.9206 8.12568 3.75C8.12568 2.5794 7.1798 1.63043 6.013 1.63043C4.8462 1.63043 3.90033 2.5794 3.90033 3.75C3.90033 4.9206 4.8462 5.86957 6.013 5.86957ZM13.987 5.86957C15.1538 5.86957 16.0997 4.9206 16.0997 3.75C16.0997 2.5794 15.1538 1.63043 13.987 1.63043C12.8202 1.63043 11.8743 2.5794 11.8743 3.75C11.8743 4.9206 12.8202 5.86957 13.987 5.86957ZM13.987 7.5C11.9227 7.5 10.2492 5.82107 10.2492 3.75C10.2492 1.67893 11.9227 0 13.987 0C16.0513 0 17.7248 1.67893 17.7248 3.75C17.7248 5.82107 16.0513 7.5 13.987 7.5Z" fill="#999999"/>
</svg>
